<svg xmlns="http://www.w3.org/2000/svg" width="19.878" height="17.165" viewBox="0 0 19.878 17.165">
  <g id="Growth_Icon" data-name="Growth Icon" transform="translate(138.105 -1880.565)">
    <path id="Path_848" data-name="Path 848" d="M74.142,142.272l-.347.089s-.143-2.042-.412-2.219c-.195-.133-.979-.289-1.3.167-.235.337.181,1.658.085,2.409a12.011,12.011,0,0,1-1.038,2.986c-.043.088-.463.108-.44.015.188-.754.907-2.41,1-3,.112-.715-.494-2.094-.193-2.888.124-.328.133-.823,1.15-.639a5.519,5.519,0,0,1,1.128.743,13.742,13.742,0,0,1,.363,2.338" transform="translate(-205.996 1751.226)" fill="#7a7a7a"/>
    <path id="Path_849" data-name="Path 849" d="M28.68,162.005l2.382-.185,17.5.141-2.23.231Z" transform="translate(-166.785 1735.537)" fill="#7a7a7a"/>
    <line id="Line_29" data-name="Line 29" x1="6.296" y2="0.085" transform="translate(-131.299 1897.075)" fill="none" stroke="#ececec" stroke-miterlimit="10" stroke-width="1"/>
    <line id="Line_30" data-name="Line 30" x1="6.296" y2="0.084" transform="translate(-131.299 1896.795)" fill="none" stroke="#ececec" stroke-miterlimit="10" stroke-width="1"/>
    <line id="Line_31" data-name="Line 31" x1="6.297" y2="0.084" transform="translate(-131.33 1896.262)" fill="none" stroke="#ececec" stroke-miterlimit="10" stroke-width="1"/>
    <line id="Line_32" data-name="Line 32" x1="6.296" y2="0.085" transform="translate(-131.299 1896.514)" fill="none" stroke="#ececec" stroke-miterlimit="10" stroke-width="1"/>
    <line id="Line_33" data-name="Line 33" x1="6.785" y2="0.085" transform="translate(-129.071 1895.025)" fill="none" stroke="#ececec" stroke-miterlimit="10" stroke-width="1"/>
    <line id="Line_34" data-name="Line 34" x1="6.785" y2="0.085" transform="translate(-129.071 1894.744)" fill="none" stroke="#ececec" stroke-miterlimit="10" stroke-width="1"/>
    <line id="Line_35" data-name="Line 35" x1="6.785" y2="0.084" transform="translate(-129.104 1894.21)" fill="none" stroke="#ececec" stroke-miterlimit="10" stroke-width="1"/>
    <line id="Line_36" data-name="Line 36" x1="6.785" y2="0.085" transform="translate(-129.071 1894.462)" fill="none" stroke="#ececec" stroke-miterlimit="10" stroke-width="1"/>
    <line id="Line_37" data-name="Line 37" x1="6.785" y2="0.085" transform="translate(-131.399 1893.174)" fill="none" stroke="#ececec" stroke-miterlimit="10" stroke-width="1"/>
    <line id="Line_38" data-name="Line 38" x1="6.785" y2="0.085" transform="translate(-131.399 1892.893)" fill="none" stroke="#ececec" stroke-miterlimit="10" stroke-width="1"/>
    <line id="Line_39" data-name="Line 39" x1="6.785" y2="0.085" transform="translate(-131.431 1892.359)" fill="none" stroke="#ececec" stroke-miterlimit="10" stroke-width="1"/>
    <line id="Line_40" data-name="Line 40" x1="6.785" y2="0.084" transform="translate(-131.399 1892.612)" fill="none" stroke="#ececec" stroke-miterlimit="10" stroke-width="1"/>
    <line id="Line_41" data-name="Line 41" x1="6.785" y2="0.085" transform="translate(-130.431 1890.94)" fill="none" stroke="#ececec" stroke-miterlimit="10" stroke-width="1"/>
    <line id="Line_42" data-name="Line 42" x1="6.785" y2="0.085" transform="translate(-130.431 1890.658)" fill="none" stroke="#ececec" stroke-miterlimit="10" stroke-width="1"/>
    <line id="Line_43" data-name="Line 43" x1="6.785" y2="0.085" transform="translate(-130.431 1891.467)" fill="none" stroke="#ececec" stroke-miterlimit="10" stroke-width="1"/>
    <line id="Line_44" data-name="Line 44" x1="6.785" y2="0.085" transform="translate(-130.431 1891.185)" fill="none" stroke="#ececec" stroke-miterlimit="10" stroke-width="1"/>
    <line id="Line_45" data-name="Line 45" x1="6.785" y2="0.084" transform="translate(-129.055 1895.559)" fill="none" stroke="#ececec" stroke-miterlimit="10" stroke-width="1"/>
    <line id="Line_46" data-name="Line 46" x1="6.785" y2="0.084" transform="translate(-129.055 1895.277)" fill="none" stroke="#ececec" stroke-miterlimit="10" stroke-width="1"/>
    <line id="Line_47" data-name="Line 47" x1="6.785" y2="0.084" transform="translate(-131.431 1893.439)" fill="none" stroke="#ececec" stroke-miterlimit="10" stroke-width="1"/>
    <line id="Line_48" data-name="Line 48" x1="6.785" y2="0.085" transform="translate(-130.463 1890.125)" fill="none" stroke="#ececec" stroke-miterlimit="10" stroke-width="1"/>
    <line id="Line_49" data-name="Line 49" x1="6.785" y2="0.084" transform="translate(-130.431 1890.378)" fill="none" stroke="#ececec" stroke-miterlimit="10" stroke-width="1"/>
    <line id="Line_50" data-name="Line 50" x1="6.784" y2="0.085" transform="translate(-126.917 1889.377)" fill="none" stroke="#ececec" stroke-miterlimit="10" stroke-width="1"/>
    <line id="Line_51" data-name="Line 51" x1="5.521" y2="0.085" transform="translate(-125.654 1889.062)" fill="none" stroke="#ececec" stroke-miterlimit="10" stroke-width="1"/>
    <line id="Line_52" data-name="Line 52" x1="5.554" y2="0.051" transform="translate(-125.688 1888.562)" fill="none" stroke="#ececec" stroke-miterlimit="10" stroke-width="1"/>
    <line id="Line_53" data-name="Line 53" x1="5.521" y2="0.085" transform="translate(-125.654 1888.78)" fill="none" stroke="#ececec" stroke-miterlimit="10" stroke-width="1"/>
    <path id="Path_850" data-name="Path 850" d="M100.787,182.1l9.47-.045a.721.721,0,0,0,.754-.8.788.788,0,0,0-.776-.784l-9.454-.012v.149h5.735a.741.741,0,0,1,.453.642.722.722,0,0,1-.434.675l-5.753.039Z" transform="translate(-232.07 1715.427)" fill="#7a7a7a"/>
    <path id="Path_851" data-name="Path 851" d="M104.842,168.107V168l-6.56.013s-.175-.057-.175-.871.233-.8.233-.8l6.464-.012v-.1H95.217s-.147.188-.147.988c0,.946.267.892.267.892Z" transform="translate(-227.121 1727.759)" fill="#7a7a7a"/>
    <path id="Path_852" data-name="Path 852" d="M99.715,153.428v-.141l5.234.013s.515-.063.515-.819c0-.712-.467-.79-.467-.79H99.71v-.181l9.249.04s.5.151.5.926c0,.8-.51.934-.51.934Z" transform="translate(-231.142 1740.516)" fill="#7a7a7a"/>
    <path id="Path_853" data-name="Path 853" d="M107.337,137.091v-.151h5.469s.276-.025.276-.968c0-.858-.28-.979-.28-.979H107.29v-.133l8.279.011s.4-.027.4,1.138c0,1.011-.4,1.039-.4,1.039Z" transform="translate(-237.711 1754.945)" fill="#7a7a7a"/>
    <path id="Path_854" data-name="Path 854" d="M126.763,124.135v-.143l-4.916.011a.611.611,0,0,1-.5-.683c0-.631.457-.7.457-.7h4.962v-.133l-8.282.008a.7.7,0,0,0-.594.792c0,.81.648.8.648.8Z" transform="translate(-246.897 1765.665)" fill="#7a7a7a"/>
    <path id="Path_855" data-name="Path 855" d="M128.69,80.751h.7l.392-2.155,1.3,1.635.543-.4s-1.354-1.855-1.276-2.119c.156-.534,1.493-1.867,1.493-2.053,0-.667-.815-.582-.815-.582s-1.694,2.037-1.746,2.187a2.124,2.124,0,0,0-.011.5s-.336.291-.353.429c-.079.635-.221,2.552-.221,2.552" transform="translate(-256.257 1806.757)" fill="#7a7a7a"/>
    <path id="Path_856" data-name="Path 856" d="M107.9,85a8.627,8.627,0,0,1-1.282,2.054.323.323,0,0,0,0,.42.267.267,0,0,0,.267-.045,12.463,12.463,0,0,1,.9-1.255,4.952,4.952,0,0,1-.543,1.172c-.06.073-.223.207-.229.3s.179.323.281.308c.079-.012.048-.06.133-.289a25.661,25.661,0,0,1,1.356-2.4Z" transform="translate(-237.064 1798.154)" fill="#7a7a7a"/>
    <path id="Path_857" data-name="Path 857" d="M109.944,71.129l-.1-.56a.73.73,0,0,1-.267.105c-.267-.04-.24-.293-.435-.307s-.161.267-.161.267a.943.943,0,0,0-.316-.133c-.2.023-.293.356-.293.356a.675.675,0,0,0,.351.288c.048.021.1.181.1.181s.085-.143.133-.145.1.095.133.116a.427.427,0,0,0,.327,0s.133-.212.208-.237c0,0,.359.067.319.063" transform="translate(-238.647 1810.836)" fill="#7a7a7a"/>
    <path id="Path_858" data-name="Path 858" d="M79.419,110.625l-.548.029a2.489,2.489,0,0,0,.113-.419c-.027-.267-.281-.255-.284-.45s.277-.148.277-.148a.942.942,0,0,1-.112-.321c.032-.2.369-.276.369-.276a.667.667,0,0,1,.267.36c.019.048.107.06.109.112s-.08.077-.085.133.089.1.109.141a.283.283,0,0,1-.044.288,1.166,1.166,0,0,0-.213.233s.048.361.045.323" transform="translate(-212.935 1777.321)" fill="#7a7a7a"/>
    <path id="Path_859" data-name="Path 859" d="M78.14,116.75l.181.7a2.823,2.823,0,0,0-.667.659c-.133.344.035,1.2-.059,1.579-.193.786-.958,1.267-1.067.934a10.239,10.239,0,0,1-.1-3.1s1.682-.766,1.706-.768" transform="translate(-210.901 1770.639)" fill="#7a7a7a"/>
    <path id="Path_860" data-name="Path 860" d="M120.788,70.494l-1.316,1.389s-1.425-.667-1.774-.492c-.148.071-.345.727-.345.727l-.942-.373a2.639,2.639,0,0,0,.408-1.655c-.064-.24.349-.387.934-.348a23.383,23.383,0,0,1,3.034.754" transform="translate(-245.615 1811.384)" fill="#7a7a7a"/>
    <path id="Path_861" data-name="Path 861" d="M106.585,66.522c.133-.42-.643-.946-.807-.934-.367.037-.832.57-1.026,1.01-.049.111.155.317.443.239.145-.039.16-.345.308-.372.068-.012.221.133.3.109s.105-.251.177-.267.255.177.345.225c.057.029.239.048.257-.013" transform="translate(-235.506 1814.977)" fill="#7a7a7a"/>
    <path id="Path_862" data-name="Path 862" d="M77.23,109.368c-.244.04-.4-.4-.309-.544a.721.721,0,0,1,.786-.459c.121,0,.453.133.259.364-.1.115-.247-.065-.335.057-.04.056.027.257-.031.317s-.267-.012-.319.047.056.2-.051.217" transform="translate(-211.37 1777.907)" fill="#7a7a7a"/>
    <path id="Path_863" data-name="Path 863" d="M124.039,117.415a.854.854,0,0,0-.747-.008,3.439,3.439,0,0,0-.283.221c-.2.12-.437.051-.506.168-.024.041.037.223.037.223l1.5.011s.059-.59,0-.615" transform="translate(-250.891 1770.141)" fill="#7a7a7a"/>
    <path id="Path_864" data-name="Path 864" d="M70.375,187.554a.578.578,0,0,1,.534-.007,2.374,2.374,0,0,1,.205.168c.133.089.311.037.36.127.017.031-.027.168-.027.168l-1.067.008s-.041-.445,0-.464" transform="translate(-205.709 1709.339)" fill="#7a7a7a"/>
    <path id="Path_865" data-name="Path 865" d="M144.333,110.637a.854.854,0,0,0-.592.455,3.338,3.338,0,0,0-.085.349c-.08.215-.313.309-.293.444,0,.047.167.152.167.152l1.188-.919s-.319-.5-.384-.482" transform="translate(-268.971 1775.938)" fill="#7a7a7a"/>
    <path id="Path_866" data-name="Path 866" d="M92.594,101.841c-.052-.019-.2.089-.2.089s-.055-.175-.105-.171c-.148.012-.225.55-.225.55l-2.229,1.569.089.373,2.828-2.1s-.072-.277-.153-.307" transform="translate(-222.58 1783.63)" fill="#7a7a7a"/>
  </g>
</svg>
