<svg xmlns="http://www.w3.org/2000/svg" xmlns:xlink="http://www.w3.org/1999/xlink" width="220.333" height="33.724" viewBox="0 0 220.333 33.724">
  <defs>
    <clipPath id="clip-path">
      <path id="Path_7" data-name="Path 7" d="M0,13.881H220.333V-19.843H0Z" transform="translate(0 19.843)" fill="#020100"/>
    </clipPath>
  </defs>
  <g id="Knotters_Onboarding_logo_Black" data-name="Knotters Onboarding logo_Black" transform="translate(0 19.843)">
    <g id="Group_10" data-name="Group 10" transform="translate(0 -19.843)" clip-path="url(#clip-path)">
      <g id="Group_6" data-name="Group 6" transform="translate(33.573 0.001)">
        <path id="Path_3" data-name="Path 3" d="M11.427,4.628Q8.251.7,5.012-3.3c.224-.158.42-.3.622-.438A17.471,17.471,0,0,1,16.259-6.6,17.321,17.321,0,0,1,30.236,1.074a15.117,15.117,0,0,1,2.794,10.077c-.449,6.7-3.987,11.379-9.883,14.305a17.426,17.426,0,0,1-9.992,1.492,17.17,17.17,0,0,1-11.669-6.5q-3.658-4.494-7.346-8.963c-.08-.1-.163-.192-.325-.381V25.91H-16.335V-5.622c.134-.007.275-.02.416-.02,3.11,0,6.22,0,9.332-.007a.748.748,0,0,1,.653.321C-.481,1.392,5.042,8.06,10.406,14.849a6.668,6.668,0,0,0,9.623.581A7.062,7.062,0,0,0,18.168,3.84a6.063,6.063,0,0,0-6.365.576c-.1.065-.189.134-.286.2-.008.007-.025.005-.09.014" transform="translate(16.335 6.616)" fill="#020100"/>
      </g>
      <g id="Group_7" data-name="Group 7" transform="translate(171.715 1.22)">
        <path id="Path_4" data-name="Path 4" d="M4.209,8.6V18.971H-6.017V-12.294h.435q6.519,0,13.037,0a19.89,19.89,0,0,1,6.65.953,9.393,9.393,0,0,1,6.416,9.791,10.956,10.956,0,0,1-2.053,6A10.164,10.164,0,0,1,15.855,6.8l-.547.357L22.313,18.98c-.19.01-.33.022-.469.022-3.618,0-7.237-.005-10.857.01a.655.655,0,0,1-.688-.44c-1.506-3.168-3.032-6.327-4.529-9.5a.671.671,0,0,0-.78-.476,6.931,6.931,0,0,1-.78.005M4.189.851c1.1,0,2.16.068,3.212-.025A4.029,4.029,0,0,0,9.145.239,2.387,2.387,0,0,0,10.11-2.45,2.4,2.4,0,0,0,7.984-4.425a35.726,35.726,0,0,0-3.8-.194Z" transform="translate(6.017 12.294)" fill="#020100"/>
      </g>
      <g id="Group_8" data-name="Group 8" transform="translate(0.001 1.052)">
        <path id="Path_5" data-name="Path 5" d="M12.645,0,.506,15.811C4.534,21.054,8.547,26.279,12.6,31.554c-.165.014-.286.031-.406.031-3.94,0-7.877-.007-11.815.012-.454,0-.6-.3-.8-.561Q-2.948,27.625-5.459,24.2c-.792-1.074-1.582-2.148-2.444-3.319V31.554H-18.075V.043H-7.939V10.614l.088.029c.1-.131.207-.258.306-.391Q-3.9,5.306-.269.359A.784.784,0,0,1,.449-.005C4.329.009,8.209,0,12.091,0Z" transform="translate(18.075 0.005)" fill="#020100"/>
      </g>
      <g id="Group_9" data-name="Group 9" transform="translate(144.713 0.935)">
        <path id="Path_6" data-name="Path 6" d="M.078,13.1C.015,2.5-.048-8.023-.111-18.592l23.553-.138v8.246c-.175,0-.359,0-.542,0-4.448.025-8.9.058-13.345.065-.454,0-.557.133-.544.563.034,1.027.012,2.055.012,3.093H22.531V.808H9.13V4.931H23.948v8.034L.078,13.1" transform="translate(0.111 18.73)" fill="#020100"/>
      </g>
    </g>
    <g id="Group_11" data-name="Group 11" transform="translate(114.509 -18.748)">
      <path id="Path_8" data-name="Path 8" d="M0,0V10.148H8.61V31.52H18.792V10.133h8.457V0Z" fill="#020100"/>
    </g>
    <g id="Group_12" data-name="Group 12" transform="translate(84.408 -18.754)">
      <path id="Path_9" data-name="Path 9" d="M0,0V10.155H8.632V31.534h10.18V10.123h8.423V0Z" fill="#020100"/>
    </g>
    <g id="Group_14" data-name="Group 14" transform="translate(0 -19.843)" clip-path="url(#clip-path)">
      <g id="Group_13" data-name="Group 13" transform="translate(201.565 9.065)">
        <path id="Path_10" data-name="Path 10" d="M6.47,3.337A9.325,9.325,0,0,0,2.14,1.3a11.254,11.254,0,0,0-2.075-.07,1.268,1.268,0,0,0-.608.209A.664.664,0,0,0-.593,2.594a4.206,4.206,0,0,0,1.02.467c1.5.506,3.018.95,4.5,1.5A7.063,7.063,0,0,1,7.908,6.546a6.607,6.607,0,0,1,.984,7.187,7.826,7.826,0,0,1-6.115,4.832,15.383,15.383,0,0,1-6.441-.071,15.277,15.277,0,0,1-5.585-2.645c1.117-1.9,2.216-3.765,3.261-5.542,1.123.573,2.192,1.181,3.314,1.671a6.972,6.972,0,0,0,3.3.663,2.348,2.348,0,0,0,.874-.233.727.727,0,0,0,.114-1.3A5.091,5.091,0,0,0,.4,10.543c-1.436-.506-2.9-.942-4.315-1.5a7.055,7.055,0,0,1-2.933-1.9A6.522,6.522,0,0,1-7.825.23a7.082,7.082,0,0,1,5.1-4.472A13.722,13.722,0,0,1,8.493-2.61c.88.549.87.568.391,1.46C8.087.332,7.289,1.812,6.47,3.337" transform="translate(9.249 4.77)" fill="#020100"/>
      </g>
    </g>
  </g>
</svg>
