<svg id="CTA_Menu_Icon" data-name="CTA Menu Icon" xmlns="http://www.w3.org/2000/svg" width="17.583" height="12.002" viewBox="0 0 17.583 12.002">
  <path id="Path_3" data-name="Path 3" d="M-6.455-2.614l-2.283-2.82c.08-.056.149-.108.221-.156A6.218,6.218,0,0,1-4.735-6.61,6.164,6.164,0,0,1,.239-3.879,5.38,5.38,0,0,1,1.234-.293,5.854,5.854,0,0,1-2.284,4.8a6.2,6.2,0,0,1-3.556.531A6.111,6.111,0,0,1-9.993,3.015q-1.3-1.6-2.614-3.19c-.028-.035-.058-.068-.116-.135V4.96h-3.613V-6.262c.048,0,.1-.007.148-.007,1.107,0,2.214,0,3.321,0a.266.266,0,0,1,.232.114c1.94,2.392,3.906,4.764,5.815,7.181a2.373,2.373,0,0,0,3.425.207,2.513,2.513,0,0,0-.662-4.125,2.158,2.158,0,0,0-2.265.205c-.034.023-.067.048-.1.071,0,0-.009,0-.032,0" transform="translate(16.335 6.616)" fill="#fff"/>
</svg>
