<svg xmlns="http://www.w3.org/2000/svg" xmlns:xlink="http://www.w3.org/1999/xlink" width="302" height="46.224" viewBox="0 0 302 46.224">
  <defs>
    <clipPath id="clip-path">
      <path id="Path_7" data-name="Path 7" d="M0,26.381H302V-19.843H0Z" transform="translate(0 19.843)" fill="none"/>
    </clipPath>
  </defs>
  <g id="Knotters_Onboarding_logo" data-name="Knotters Onboarding logo" transform="translate(0 19.843)">
    <g id="Group_10" data-name="Group 10" transform="translate(0 -19.843)" clip-path="url(#clip-path)">
      <g id="Group_6" data-name="Group 6" transform="translate(46.017 0.001)">
        <path id="Path_3" data-name="Path 3" d="M21.718,8.8Q17.364,3.418,12.924-2.067c.307-.217.575-.417.853-.6A23.946,23.946,0,0,1,28.34-6.593C36.477-6.274,42.8-2.61,47.5,3.925a20.721,20.721,0,0,1,3.83,13.812c-.615,9.183-5.465,15.6-13.546,19.607a23.886,23.886,0,0,1-13.7,2.045A23.534,23.534,0,0,1,8.092,30.476Q3.078,24.316-1.976,18.191c-.109-.135-.224-.263-.445-.522v20.3H-16.335V-5.254c.184-.009.377-.028.571-.028,4.263,0,8.526,0,12.791-.009a1.026,1.026,0,0,1,.895.44C5.395,4.36,12.966,13.5,20.318,22.805a9.14,9.14,0,0,0,13.19.8A9.68,9.68,0,0,0,30.956,7.715a8.311,8.311,0,0,0-8.724.79c-.13.089-.259.184-.391.273-.012.009-.035.007-.123.019" transform="translate(16.335 6.616)" fill="#f2efe2"/>
      </g>
      <g id="Group_7" data-name="Group 7" transform="translate(235.361 1.672)">
        <path id="Path_4" data-name="Path 4" d="M8,16.345V30.56H-6.017V-12.294h.6q8.935,0,17.87,0a27.262,27.262,0,0,1,9.115,1.307,12.874,12.874,0,0,1,8.794,13.42,15.017,15.017,0,0,1-2.814,8.226,13.931,13.931,0,0,1-3.583,3.21c-.231.151-.464.3-.75.489l9.6,16.211c-.261.014-.452.03-.643.03-4.96,0-9.919-.007-14.881.014a.9.9,0,0,1-.943-.6c-2.064-4.342-4.156-8.673-6.208-13.022a.92.92,0,0,0-1.069-.652A9.5,9.5,0,0,1,8,16.345M7.972,5.723c1.5,0,2.961.093,4.4-.035a5.522,5.522,0,0,0,2.39-.8A3.272,3.272,0,0,0,16.088,1.2a3.291,3.291,0,0,0-2.914-2.707,48.968,48.968,0,0,0-5.2-.266Z" transform="translate(6.017 12.294)" fill="#fff"/>
      </g>
      <g id="Group_8" data-name="Group 8" transform="translate(0.001 1.442)">
        <path id="Path_5" data-name="Path 5" d="M24.031.007,7.394,21.673c5.521,7.187,11.021,14.347,16.572,21.578-.226.019-.391.042-.557.042-5.4,0-10.8-.009-16.195.016-.622,0-.822-.405-1.093-.769q-3.463-4.675-6.9-9.369c-1.086-1.472-2.169-2.944-3.35-4.55V43.252H-18.075V.06H-4.182V14.55c.04.014.079.026.121.04.14-.179.284-.354.419-.536Q1.352,7.275,6.331.494a1.075,1.075,0,0,1,.983-.5c5.318.019,10.637.012,15.957.012Z" transform="translate(18.075 0.005)" fill="#fff"/>
      </g>
      <g id="Group_9" data-name="Group 9" transform="translate(198.351 1.282)">
        <path id="Path_6" data-name="Path 6" d="M.148,24.9C.061,10.366-.025-4.054-.111-18.541l32.282-.189v11.3c-.24,0-.492,0-.743,0-6.1.035-12.195.079-18.291.089-.622,0-.764.182-.745.771.047,1.407.016,2.816.016,4.24H30.923V8.05H12.555V13.7H32.866V24.713L.148,24.9" transform="translate(0.111 18.73)" fill="#fff"/>
      </g>
    </g>
    <g id="Group_11" data-name="Group 11" transform="translate(156.953 -18.342)">
      <path id="Path_8" data-name="Path 8" d="M0,0V13.91H11.8V43.2H25.757V13.889H37.349V0Z" fill="#fff"/>
    </g>
    <g id="Group_12" data-name="Group 12" transform="translate(115.694 -18.351)">
      <path id="Path_9" data-name="Path 9" d="M0,0V13.919H11.832v29.3H25.785V13.875H37.33V0Z" fill="#fff"/>
    </g>
    <g id="Group_14" data-name="Group 14" transform="translate(0 -19.843)" clip-path="url(#clip-path)">
      <g id="Group_13" data-name="Group 13" transform="translate(276.275 12.426)">
        <path id="Path_10" data-name="Path 10" d="M12.3,6.342A12.781,12.781,0,0,0,6.361,3.551a15.425,15.425,0,0,0-2.844-.1,1.738,1.738,0,0,0-.834.287.91.91,0,0,0-.068,1.582,5.765,5.765,0,0,0,1.4.641c2.052.694,4.137,1.3,6.164,2.057a9.681,9.681,0,0,1,4.091,2.719c2.537,2.986,2.746,6.374,1.349,9.851-1.5,3.746-4.48,5.824-8.382,6.623a21.085,21.085,0,0,1-8.829-.1,20.94,20.94,0,0,1-7.655-3.625c1.53-2.6,3.038-5.16,4.47-7.6,1.54.785,3.005,1.619,4.543,2.29a9.556,9.556,0,0,0,4.524.909,3.218,3.218,0,0,0,1.2-.319,1,1,0,0,0,.156-1.787,6.977,6.977,0,0,0-1.663-.769c-1.968-.694-3.972-1.291-5.915-2.05A9.669,9.669,0,0,1-5.957,11.56C-8.378,8.692-8.548,5.438-7.3,2.084a9.707,9.707,0,0,1,7-6.129,18.808,18.808,0,0,1,15.37,2.236c1.207.752,1.193.778.536,2-1.093,2.031-2.185,4.06-3.308,6.15" transform="translate(9.249 4.77)" fill="#fff"/>
      </g>
    </g>
  </g>
</svg>
